ffmpeg started on 2016-12-09 at 02:00:05
Report written to "Output/x264/results/ffmpeg/crowd_run_2160p50veryslow14000k.log"
Command line:
Tools/ffmpeg/ffmpeg -benchmark -y -i Input/y4m/crowd_run_2160p50.y4m -c:v libx264 -preset veryslow -b:v 14000k -an Output/x264/encoded/crowd_run_2160p50veryslow14000k.mkv
ffmpeg version N-82227-gdb23fde Copyright (c) 2000-2016 the FFmpeg developers
  built with gcc 5.4.0 (Ubuntu 5.4.0-6ubuntu1~16.04.2) 20160609
  configuration: --prefix=/home/jaroslav/ffmpeg_build --pkg-config-flags=--static --extra-cflags=-I/home/jaroslav/ffmpeg_build/include --extra-ldflags=-L/home/jaroslav/ffmpeg_build/lib --bindir=/home/jaroslav/bin --enable-gpl --enable-libass --enable-libfdk-aac --enable-libfreetype --enable-libmp3lame --enable-libopus --enable-libtheora --enable-libvorbis --enable-libvpx --enable-libx264 --enable-libx265 --enable-nvenc --enable-libmfx --enable-libxvid --enable-libgsm --enable-libopencore-amrnb --enable-version3 --enable-nonfree
  libavutil      55. 35.100 / 55. 35.100
  libavcodec     57. 66.101 / 57. 66.101
  libavformat    57. 57.100 / 57. 57.100
  libavdevice    57.  2.100 / 57.  2.100
  libavfilter     6. 66.100 /  6. 66.100
  libswscale      4.  3.100 /  4.  3.100
  libswresample   2.  4.100 /  2.  4.100
  libpostproc    54.  2.100 / 54.  2.100
Input #0, yuv4mpegpipe, from 'Input/y4m/crowd_run_2160p50.y4m':
  Duration: 00:00:10.00, start: 0.000000, bitrate: 4976642 kb/s
    Stream #0:0: Video: rawvideo (I420 / 0x30323449), yuv420p(progressive), 3840x2160, SAR 1:1 DAR 16:9, 50 fps, 50 tbr, 50 tbn, 50 tbc
[libx264 @ 0x2c181c0] using SAR=1/1
[libx264 @ 0x2c181c0] DPB size (16 frames, 518400 mbs) > level limit (5 frames, 184320 mbs)
[libx264 @ 0x2c181c0] using cpu capabilities: MMX2 SSE2Fast SSSE3 SSE4.2 AVX FMA3 AVX2 LZCNT BMI2
[libx264 @ 0x2c181c0] profile High, level 5.2
[libx264 @ 0x2c181c0] 264 - core 148 - H.264/MPEG-4 AVC codec - Copyleft 2003-2016 - http://www.videolan.org/x264.html - options: cabac=1 ref=16 deblock=1:0:0 analyse=0x3:0x133 me=umh subme=10 psy=1 psy_rd=1.00:0.00 mixed_ref=1 me_range=24 chroma_me=1 trellis=2 8x8dct=1 cqm=0 deadzone=21,11 fast_pskip=1 chroma_qp_offset=-2 threads=6 lookahead_threads=1 sliced_threads=0 nr=0 decimate=1 interlaced=0 bluray_compat=0 constrained_intra=0 bframes=8 b_pyramid=2 b_adapt=2 b_bias=0 direct=3 weightb=1 open_gop=0 weightp=2 keyint=250 keyint_min=25 scenecut=40 intra_refresh=0 rc_lookahead=60 rc=abr mbtree=1 bitrate=14000 ratetol=1.0 qcomp=0.60 qpmin=0 qpmax=69 qpstep=4 ip_ratio=1.40 aq=1:1.00
Output #0, matroska, to 'Output/x264/encoded/crowd_run_2160p50veryslow14000k.mkv':
  Metadata:
    encoder         : Lavf57.57.100
    Stream #0:0: Video: h264 (libx264) (H264 / 0x34363248), yuv420p, 3840x2160 [SAR 1:1 DAR 16:9], q=-1--1, 14000 kb/s, 50 fps, 1k tbn, 50 tbc
    Metadata:
      encoder         : Lavc57.66.101 libx264
    Side data:
      cpb: bitrate max/min/avg: 0/0/14000000 buffer size: 0 vbv_delay: -1
Stream mapping:
  Stream #0:0 -> #0:0 (rawvideo (native) -> h264 (libx264))
Press [q] to stop, [?] for help
frame=   19 fps=0.0 q=0.0 size=       0kB time=00:00:00.00 bitrate=N/A speed=   0x    frame=   32 fps= 30 q=0.0 size=       0kB time=00:00:00.00 bitrate=N/A speed=   0x    frame=   44 fps= 28 q=0.0 size=       0kB time=00:00:00.00 bitrate=N/A speed=   0x    frame=   54 fps= 26 q=0.0 size=       0kB time=00:00:00.00 bitrate=N/A speed=   0x    frame=   64 fps= 24 q=0.0 size=       0kB time=00:00:00.00 bitrate=N/A speed=   0x    frame=   72 fps=7.0 q=0.0 size=       0kB time=00:00:00.00 bitrate=N/A speed=   0x    frame=   77 fps=6.0 q=39.0 size=       1kB time=-00:00:00.01 bitrate=N/A speed=N/A    frame=   78 fps=5.4 q=35.0 size=       1kB time=00:00:00.00 bitrate=5888.0kbits/s speed=6.9e-05x    frame=   79 fps=5.2 q=33.0 size=       1kB time=00:00:00.02 bitrate= 280.4kbits/s speed=0.00139x    frame=   82 fps=5.2 q=43.0 size=       1kB time=00:00:00.08 bitrate=  72.7kbits/s speed=0.00518x    frame=   84 fps=4.8 q=45.0 size=       1kB time=00:00:00.12 bitrate=  48.7kbits/s speed=0.00696x    frame=   88 fps=4.9 q=48.0 size=       1kB time=00:00:00.20 bitrate=  29.3kbits/s speed=0.0111x    frame=   89 fps=4.8 q=47.0 size=       1kB time=00:00:00.22 bitrate=  26.6kbits/s speed=0.0119x    frame=   90 fps=4.6 q=48.0 size=       1kB time=00:00:00.24 bitrate=  24.4kbits/s speed=0.0122x    frame=   91 fps=4.5 q=48.0 size=       1kB time=00:00:00.26 bitrate=  22.6kbits/s speed=0.0129x    frame=   92 fps=4.4 q=47.0 size=       1kB time=00:00:00.28 bitrate=  21.0kbits/s speed=0.0135x    frame=   95 fps=4.3 q=47.0 size=       1kB time=00:00:00.34 bitrate=  17.3kbits/s speed=0.0153x    frame=   96 fps=4.1 q=47.0 size=       1kB time=00:00:00.36 bitrate=  16.3kbits/s speed=0.0155x    frame=   99 fps=3.9 q=46.0 size=       1kB time=00:00:00.42 bitrate=  14.0kbits/s speed=0.0166x    frame=  101 fps=3.8 q=46.0 size=       1kB time=00:00:00.46 bitrate=  12.8kbits/s speed=0.0173x    frame=  103 fps=3.6 q=46.0 size=       1kB time=00:00:00.50 bitrate=  11.8kbits/s speed=0.0176x    frame=  104 fps=3.5 q=46.0 size=       1kB time=00:00:00.52 bitrate=  11.3kbits/s speed=0.0177x    frame=  105 fps=3.5 q=45.0 size=       1kB time=00:00:00.54 bitrate=  10.9kbits/s speed=0.0181x    frame=  107 fps=3.3 q=46.0 size=       1kB time=00:00:00.58 bitrate=  10.1kbits/s speed=0.0181x    frame=  108 fps=3.3 q=45.0 size=       1kB time=00:00:00.60 bitrate=   9.8kbits/s speed=0.0183x    frame=  110 fps=3.3 q=45.0 size=       1kB time=00:00:00.64 bitrate=   9.2kbits/s speed=0.0191x    frame=  111 fps=3.1 q=45.0 size=       1kB time=00:00:00.66 bitrate=   8.9kbits/s speed=0.0185x    frame=  112 fps=3.1 q=45.0 size=       1kB time=00:00:00.68 bitrate=   8.6kbits/s speed=0.0188x    frame=  113 fps=3.1 q=45.0 size=       1kB time=00:00:00.70 bitrate=   8.4kbits/s speed=0.019x    frame=  115 fps=3.0 q=45.0 size=       1kB time=00:00:00.74 bitrate=   7.9kbits/s speed=0.019x    frame=  116 fps=2.9 q=45.0 size=       1kB time=00:00:00.76 bitrate=   7.7kbits/s speed=0.019x    frame=  117 fps=2.9 q=45.0 size=       1kB time=00:00:00.78 bitrate=   7.5kbits/s speed=0.0192x    frame=  120 fps=2.8 q=45.0 size=       1kB time=00:00:00.84 bitrate=   7.0kbits/s speed=0.0197x    frame=  121 fps=2.7 q=45.0 size=       1kB time=00:00:00.86 bitrate=   6.8kbits/s speed=0.0195x    frame=  124 fps=2.7 q=45.0 size=       1kB time=00:00:00.92 bitrate=   6.4kbits/s speed=0.0198x    frame=  125 fps=2.7 q=45.0 size=       1kB time=00:00:00.94 bitrate=   6.3kbits/s speed=0.02x    frame=  126 fps=2.6 q=45.0 size=       1kB time=00:00:00.96 bitrate=   6.1kbits/s speed=0.0201x    frame=  128 fps=2.5 q=44.0 size=       1kB time=00:00:01.00 bitrate=   5.9kbits/s speed=0.0197x    frame=  129 fps=2.5 q=44.0 size=       1kB time=00:00:01.02 bitrate=   5.8kbits/s speed=0.0198x    frame=  130 fps=2.5 q=44.0 size=       1kB time=00:00:01.04 bitrate=   5.7kbits/s speed=0.02x    frame=  133 fps=2.5 q=44.0 size=       1kB time=00:00:01.10 bitrate=   5.3kbits/s speed=0.0204x    frame=  134 fps=2.4 q=44.0 size=       1kB time=00:00:01.12 bitrate=   5.3kbits/s speed=0.0202x    frame=  136 fps=2.4 q=44.0 size=       1kB time=00:00:01.16 bitrate=   5.1kbits/s speed=0.0207x    frame=  137 fps=2.4 q=44.0 size=       1kB time=00:00:01.18 bitrate=   5.0kbits/s speed=0.0203x    frame=  138 fps=2.4 q=44.0 size=       1kB time=00:00:01.20 bitrate=   4.9kbits/s speed=0.0205x    frame=  140 fps=2.3 q=44.0 size=       1kB time=00:00:01.24 bitrate=   4.7kbits/s speed=0.0208x    frame=  141 fps=2.3 q=44.0 size=       1kB time=00:00:01.26 bitrate=   4.7kbits/s speed=0.0205x    frame=  142 fps=2.3 q=44.0 size=       1kB time=00:00:01.28 bitrate=   4.6kbits/s speed=0.0205x    frame=  143 fps=2.3 q=44.0 size=       1kB time=00:00:01.30 bitrate=   4.5kbits/s speed=0.0206x    frame=  145 fps=2.2 q=44.0 size=       1kB time=00:00:01.34 bitrate=   4.4kbits/s speed=0.0204x    frame=  146 fps=2.2 q=44.0 size=       1kB time=00:00:01.36 bitrate=   4.3kbits/s speed=0.0204x    frame=  147 fps=2.2 q=44.0 size=       1kB time=00:00:01.38 bitrate=   4.3kbits/s speed=0.0205x    frame=  150 fps=2.2 q=43.0 size=       1kB time=00:00:01.44 bitrate=   4.1kbits/s speed=0.0208x    frame=  151 fps=2.1 q=43.0 size=       1kB time=00:00:01.46 bitrate=   4.0kbits/s speed=0.0204x    frame=  153 fps=2.1 q=43.0 size=       1kB time=00:00:01.50 bitrate=   3.9kbits/s speed=0.0207x    frame=  156 fps=2.1 q=43.0 size=       1kB time=00:00:01.56 bitrate=   3.8kbits/s speed=0.0209x    frame=  157 fps=2.1 q=43.0 size=       1kB time=00:00:01.58 bitrate=   3.7kbits/s speed=0.0208x    frame=  159 fps=2.1 q=43.0 size=       1kB time=00:00:01.62 bitrate=   3.6kbits/s speed=0.0211x    frame=  160 fps=2.0 q=43.0 size=       1kB time=00:00:01.64 bitrate=   3.6kbits/s speed=0.0208x    frame=  161 fps=2.0 q=43.0 size=       1kB time=00:00:01.66 bitrate=   3.5kbits/s speed=0.0209x    frame=  162 fps=2.0 q=43.0 size=       1kB time=00:00:01.68 bitrate=   3.5kbits/s speed=0.021x    frame=  164 fps=2.0 q=43.0 size=       1kB time=00:00:01.72 bitrate=   3.4kbits/s speed=0.0208x    frame=  165 fps=2.0 q=43.0 size=       1kB time=00:00:01.74 bitrate=   3.4kbits/s speed=0.0209x    frame=  168 fps=1.9 q=43.0 size=       1kB time=00:00:01.80 bitrate=   3.3kbits/s speed=0.0209x    frame=  169 fps=1.9 q=43.0 size=       1kB time=00:00:01.82 bitrate=   3.2kbits/s speed=0.0209x    frame=  172 fps=1.9 q=43.0 size=       1kB time=00:00:01.88 bitrate=   3.1kbits/s speed=0.0208x    frame=  173 fps=1.9 q=43.0 size=       1kB time=00:00:01.90 bitrate=   3.1kbits/s speed=0.0209x    frame=  174 fps=1.9 q=43.0 size=       1kB time=00:00:01.92 bitrate=   3.1kbits/s speed=0.0209x    frame=  178 fps=1.9 q=43.0 size=       1kB time=00:00:02.00 bitrate=   2.9kbits/s speed=0.0209x    frame=  179 fps=1.9 q=43.0 size=       1kB time=00:00:02.02 bitrate=   2.9kbits/s speed=0.021x    frame=  180 fps=1.9 q=43.0 size=       1kB time=00:00:02.04 bitrate=   2.9kbits/s speed=0.021x    frame=  182 fps=1.9 q=43.0 size=       1kB time=00:00:02.08 bitrate=   2.8kbits/s speed=0.0212x    frame=  183 fps=1.8 q=43.0 size=       1kB time=00:00:02.10 bitrate=   2.8kbits/s speed=0.0212x    frame=  184 fps=1.8 q=43.0 size=       1kB time=00:00:02.12 bitrate=   2.8kbits/s speed=0.0213x    frame=  185 fps=1.8 q=43.0 size=       1kB time=00:00:02.14 bitrate=   2.8kbits/s speed=0.0213x    frame=  186 fps=1.8 q=43.0 size=       1kB time=00:00:02.16 bitrate=   2.7kbits/s speed=0.021x    frame=  187 fps=1.8 q=43.0 size=       1kB time=00:00:02.18 bitrate=   2.7kbits/s speed=0.021x    frame=  188 fps=1.8 q=43.0 size=       1kB time=00:00:02.20 bitrate=   2.7kbits/s speed=0.021x    frame=  191 fps=1.8 q=43.0 size=       1kB time=00:00:02.26 bitrate=   2.6kbits/s speed=0.0213x    frame=  192 fps=1.8 q=43.0 size=       1kB time=00:00:02.28 bitrate=   2.6kbits/s speed=0.021x    frame=  193 fps=1.8 q=42.0 size=       1kB time=00:00:02.30 bitrate=   2.6kbits/s speed=0.0211x    frame=  196 fps=1.8 q=42.0 size=       1kB time=00:00:02.36 bitrate=   2.5kbits/s speed=0.0212x    frame=  197 fps=1.7 q=42.0 size=       1kB time=00:00:02.38 bitrate=   2.5kbits/s speed=0.0211x    frame=  199 fps=1.7 q=42.0 size=       1kB time=00:00:02.42 bitrate=   2.4kbits/s speed=0.0212x    frame=  201 fps=1.7 q=42.0 size=       1kB time=00:00:02.46 bitrate=   2.4kbits/s speed=0.0212x    frame=  202 fps=1.7 q=42.0 size=       1kB time=00:00:02.48 bitrate=   2.4kbits/s speed=0.0212x    frame=  203 fps=1.7 q=42.0 size=       1kB time=00:00:02.50 bitrate=   2.4kbits/s speed=0.0212x    frame=  205 fps=1.7 q=42.0 size=       1kB time=00:00:02.54 bitrate=   2.3kbits/s speed=0.0211x    frame=  206 fps=1.7 q=42.0 size=       1kB time=00:00:02.56 bitrate=   2.3kbits/s speed=0.0211x    frame=  207 fps=1.7 q=42.0 size=       1kB time=00:00:02.58 bitrate=   2.3kbits/s speed=0.0211x    frame=  210 fps=1.7 q=42.0 size=       1kB time=00:00:02.64 bitrate=   2.2kbits/s speed=0.0213x    frame=  211 fps=1.7 q=42.0 size=       1kB time=00:00:02.66 bitrate=   2.2kbits/s speed=0.0212x    frame=  214 fps=1.7 q=42.0 size=       1kB time=00:00:02.72 bitrate=   2.2kbits/s speed=0.0211x    frame=  215 fps=1.7 q=42.0 size=       1kB time=00:00:02.74 bitrate=   2.1kbits/s speed=0.0211x    frame=  216 fps=1.7 q=42.0 size=    5128kB time=00:00:02.76 bitrate=15213.5kbits/s speed=0.0212x    frame=  219 fps=1.7 q=42.0 size=    5128kB time=00:00:02.82 bitrate=14890.0kbits/s speed=0.0213x    frame=  220 fps=1.6 q=42.0 size=    5128kB time=00:00:02.84 bitrate=14785.1kbits/s speed=0.021x    frame=  221 fps=1.6 q=42.0 size=    5128kB time=00:00:02.86 bitrate=14681.8kbits/s speed=0.0211x    frame=  224 fps=1.6 q=42.0 size=    5128kB time=00:00:02.92 bitrate=14380.2kbits/s speed=0.0213x    frame=  225 fps=1.6 q=42.0 size=    5128kB time=00:00:02.94 bitrate=14282.4kbits/s speed=0.0212x    frame=  226 fps=1.6 q=42.0 size=    5128kB time=00:00:02.96 bitrate=14185.9kbits/s speed=0.0213x    frame=  227 fps=1.6 q=42.0 size=    5128kB time=00:00:02.98 bitrate=14090.8kbits/s speed=0.0212x    frame=  229 fps=1.6 q=42.0 size=    5128kB time=00:00:03.02 bitrate=13904.2kbits/s speed=0.0212x    frame=  230 fps=1.6 q=42.0 size=    5128kB time=00:00:03.04 bitrate=13812.7kbits/s speed=0.0212x    frame=  231 fps=1.6 q=42.0 size=    5128kB time=00:00:03.06 bitrate=13722.5kbits/s speed=0.0212x    frame=  233 fps=1.6 q=42.0 size=    5128kB time=00:00:03.10 bitrate=13545.5kbits/s speed=0.0214x    frame=  234 fps=1.6 q=42.0 size=    5128kB time=00:00:03.12 bitrate=13458.7kbits/s speed=0.0212x    frame=  235 fps=1.6 q=42.0 size=    5128kB time=00:00:03.14 bitrate=13373.0kbits/s speed=0.0212x    frame=  236 fps=1.6 q=42.0 size=    5128kB time=00:00:03.16 bitrate=13288.4kbits/s speed=0.0212x    frame=  239 fps=1.6 q=42.0 size=    5128kB time=00:00:03.22 bitrate=13040.8kbits/s speed=0.0212x    frame=  240 fps=1.6 q=42.0 size=    5128kB time=00:00:03.24 bitrate=12960.4kbits/s speed=0.0211x    frame=  242 fps=1.6 q=42.0 size=    5128kB time=00:00:03.28 bitrate=12802.4kbits/s speed=0.0213x    frame=  245 fps=1.5 q=42.0 size=    5128kB time=00:00:03.34 bitrate=12572.5kbits/s speed=0.0211x    frame=  246 fps=1.5 q=42.0 size=    5128kB time=00:00:03.36 bitrate=12497.6kbits/s speed=0.0211x    frame=  247 fps=1.5 q=42.0 size=    5128kB time=00:00:03.38 bitrate=12423.7kbits/s speed=0.0212x    frame=  250 fps=1.5 q=42.0 size=    5128kB time=00:00:03.44 bitrate=12207.1kbits/s speed=0.0212x    frame=  251 fps=1.5 q=42.0 size=    5128kB time=00:00:03.46 bitrate=12136.5kbits/s speed=0.0211x    frame=  252 fps=1.5 q=42.0 size=    5128kB time=00:00:03.48 bitrate=12066.8kbits/s speed=0.0211x    frame=  256 fps=1.5 q=42.0 size=    5128kB time=00:00:03.56 bitrate=11795.7kbits/s speed=0.0212x    frame=  257 fps=1.5 q=42.0 size=    5128kB time=00:00:03.58 bitrate=11729.8kbits/s speed=0.0211x    frame=  258 fps=1.5 q=42.0 size=    5128kB time=00:00:03.60 bitrate=11664.7kbits/s speed=0.0212x    frame=  260 fps=1.5 q=42.0 size=    5128kB time=00:00:03.64 bitrate=11536.5kbits/s speed=0.0212x    frame=  261 fps=1.5 q=42.0 size=    5128kB time=00:00:03.66 bitrate=11473.5kbits/s speed=0.0212x    frame=  262 fps=1.5 q=42.0 size=    5128kB time=00:00:03.68 bitrate=11411.2kbits/s speed=0.0212x    frame=  264 fps=1.5 q=42.0 size=    5128kB time=00:00:03.72 bitrate=11288.5kbits/s speed=0.0211x    frame=  265 fps=1.5 q=42.0 size=    5128kB time=00:00:03.74 bitrate=11228.2kbits/s speed=0.0212x    frame=  266 fps=1.5 q=42.0 size=    5128kB time=00:00:03.76 bitrate=11168.5kbits/s speed=0.0212x    frame=  268 fps=1.5 q=42.0 size=    5128kB time=00:00:03.80 bitrate=11050.9kbits/s speed=0.0211x    frame=  269 fps=1.5 q=42.0 size=    5128kB time=00:00:03.82 bitrate=10993.1kbits/s speed=0.0211x    frame=  270 fps=1.5 q=42.0 size=    5128kB time=00:00:03.84 bitrate=10935.8kbits/s speed=0.0211x    frame=  273 fps=1.5 q=42.0 size=    5128kB time=00:00:03.90 bitrate=10767.6kbits/s speed=0.0213x    frame=  274 fps=1.5 q=42.0 size=    5128kB time=00:00:03.92 bitrate=10712.7kbits/s speed=0.0211x    frame=  276 fps=1.5 q=42.0 size=    5128kB time=00:00:03.96 bitrate=10604.5kbits/s speed=0.0213x    frame=  277 fps=1.5 q=42.0 size=    5128kB time=00:00:03.98 bitrate=10551.3kbits/s speed=0.0211x    frame=  278 fps=1.5 q=42.0 size=    5128kB time=00:00:04.00 bitrate=10498.5kbits/s speed=0.0211x    frame=  280 fps=1.5 q=42.0 size=    5128kB time=00:00:04.04 bitrate=10394.6kbits/s speed=0.0212x    frame=  281 fps=1.5 q=42.0 size=    5128kB time=00:00:04.06 bitrate=10343.4kbits/s speed=0.0213x    frame=  282 fps=1.5 q=42.0 size=    5128kB time=00:00:04.08 bitrate=10292.7kbits/s speed=0.0212x    frame=  283 fps=1.5 q=42.0 size=    5128kB time=00:00:04.10 bitrate=10242.5kbits/s speed=0.0211x    frame=  285 fps=1.5 q=42.0 size=    5128kB time=00:00:04.14 bitrate=10143.6kbits/s speed=0.0212x    frame=  286 fps=1.5 q=42.0 size=    5128kB time=00:00:04.16 bitrate=10094.8kbits/s speed=0.0212x    frame=  287 fps=1.5 q=42.0 size=    5128kB time=00:00:04.18 bitrate=10046.5kbits/s speed=0.0212x    frame=  289 fps=1.4 q=42.0 size=    5128kB time=00:00:04.22 bitrate=9951.3kbits/s speed=0.0212x    frame=  290 fps=1.4 q=42.0 size=    5128kB time=00:00:04.24 bitrate=9904.4kbits/s speed=0.0211x    frame=  291 fps=1.4 q=42.0 size=    5128kB time=00:00:04.26 bitrate=9857.9kbits/s speed=0.0211x    frame=  292 fps=1.4 q=42.0 size=    5128kB time=00:00:04.28 bitrate=9811.9kbits/s speed=0.0211x    frame=  294 fps=1.4 q=42.0 size=    5128kB time=00:00:04.32 bitrate=9721.0kbits/s speed=0.0211x    frame=  295 fps=1.4 q=42.0 size=    5128kB time=00:00:04.34 bitrate=9676.2kbits/s speed=0.0212x    frame=  296 fps=1.4 q=42.0 size=    5128kB time=00:00:04.36 bitrate=9631.9kbits/s speed=0.0212x    frame=  297 fps=1.4 q=42.0 size=    5128kB time=00:00:04.38 bitrate=9587.9kbits/s speed=0.0212x    frame=  298 fps=1.4 q=42.0 size=    5128kB time=00:00:04.40 bitrate=9544.3kbits/s speed=0.0211x    frame=  299 fps=1.4 q=42.0 size=    5128kB time=00:00:04.42 bitrate=9501.1kbits/s speed=0.0211x    frame=  300 fps=1.4 q=42.0 size=    5128kB time=00:00:04.44 bitrate=9458.4kbits/s speed=0.0211x    frame=  301 fps=1.4 q=42.0 size=    5128kB time=00:00:04.46 bitrate=9416.0kbits/s speed=0.0211x    frame=  303 fps=1.4 q=42.0 size=    5128kB time=00:00:04.50 bitrate=9332.3kbits/s speed=0.0211x    frame=  304 fps=1.4 q=42.0 size=    5128kB time=00:00:04.52 bitrate=9291.0kbits/s speed=0.0211x    frame=  305 fps=1.4 q=42.0 size=    5128kB time=00:00:04.54 bitrate=9250.1kbits/s speed=0.0212x    frame=  307 fps=1.4 q=42.0 size=    5128kB time=00:00:04.58 bitrate=9169.3kbits/s speed=0.021x    frame=  308 fps=1.4 q=42.0 size=    5128kB time=00:00:04.60 bitrate=9129.4kbits/s speed=0.0211x    frame=  309 fps=1.4 q=42.0 size=    5128kB time=00:00:04.62 bitrate=9089.9kbits/s speed=0.0211x    frame=  311 fps=1.4 q=42.0 size=    5128kB time=00:00:04.66 bitrate=9011.9kbits/s speed=0.0211x    frame=  312 fps=1.4 q=42.0 size=    5128kB time=00:00:04.68 bitrate=8973.4kbits/s speed=0.0211x    frame=  313 fps=1.4 q=42.0 size=    5128kB time=00:00:04.70 bitrate=8935.2kbits/s speed=0.0211x    frame=  314 fps=1.4 q=42.0 size=    5128kB time=00:00:04.72 bitrate=8897.4kbits/s speed=0.0212x    frame=  315 fps=1.4 q=42.0 size=    5128kB time=00:00:04.74 bitrate=8859.9kbits/s speed=0.021x    frame=  316 fps=1.4 q=42.0 size=    5128kB time=00:00:04.76 bitrate=8822.6kbits/s speed=0.021x    frame=  318 fps=1.4 q=42.0 size=    5128kB time=00:00:04.80 bitrate=8749.1kbits/s speed=0.0212x    frame=  319 fps=1.4 q=42.0 size=    5128kB time=00:00:04.82 bitrate=8712.8kbits/s speed=0.021x    frame=  320 fps=1.4 q=42.0 size=    5128kB time=00:00:04.84 bitrate=8676.8kbits/s speed=0.021x    frame=  323 fps=1.4 q=42.0 size=    5128kB time=00:00:04.90 bitrate=8570.6kbits/s speed=0.0211x    frame=  325 fps=1.4 q=42.0 size=    5128kB time=00:00:04.94 bitrate=8501.2kbits/s speed=0.0212x    frame=  326 fps=1.4 q=42.0 size=    8658kB time=00:00:04.96 bitrate=14296.6kbits/s speed=0.0212x    frame=  332 fps=1.4 q=42.0 size=    8658kB time=00:00:05.08 bitrate=13959.0kbits/s speed=0.0215x    frame=  334 fps=1.4 q=42.0 size=    8658kB time=00:00:05.12 bitrate=13849.9kbits/s speed=0.0217x    frame=  336 fps=1.4 q=42.0 size=    8658kB time=00:00:05.16 bitrate=13742.6kbits/s speed=0.0217x    frame=  338 fps=1.4 q=42.0 size=    8658kB time=00:00:05.20 bitrate=13636.9kbits/s speed=0.0218x    frame=  340 fps=1.4 q=42.0 size=    8658kB time=00:00:05.24 bitrate=13532.8kbits/s speed=0.0219x    frame=  341 fps=1.4 q=42.0 size=    8658kB time=00:00:05.26 bitrate=13481.4kbits/s speed=0.0219x    frame=  343 fps=1.4 q=42.0 size=    8658kB time=00:00:05.30 bitrate=13379.6kbits/s speed=0.0219x    frame=  345 fps=1.4 q=42.0 size=    8658kB time=00:00:05.34 bitrate=13279.4kbits/s speed=0.0219x    frame=  347 fps=1.4 q=42.0 size=    8658kB time=00:00:05.38 bitrate=13180.7kbits/s speed=0.022x    frame=  349 fps=1.4 q=42.0 size=    8658kB time=00:00:05.42 bitrate=13083.5kbits/s speed=0.022x    frame=  351 fps=1.4 q=42.0 size=    8658kB time=00:00:05.46 bitrate=12987.6kbits/s speed=0.022x    frame=  353 fps=1.4 q=42.0 size=    8658kB time=00:00:05.50 bitrate=12893.2kbits/s speed=0.022x    frame=  354 fps=1.4 q=42.0 size=    8658kB time=00:00:05.52 bitrate=12846.5kbits/s speed=0.022x    frame=  355 fps=1.4 q=42.0 size=    8658kB time=00:00:05.54 bitrate=12800.1kbits/s speed=0.022x    frame=  357 fps=1.4 q=42.0 size=    8658kB time=00:00:05.58 bitrate=12708.4kbits/s speed=0.022x    frame=  358 fps=1.4 q=42.0 size=    8658kB time=00:00:05.60 bitrate=12663.0kbits/s speed=0.022x    frame=  359 fps=1.4 q=42.0 size=    8658kB time=00:00:05.62 bitrate=12618.0kbits/s speed=0.022x    frame=  361 fps=1.4 q=42.0 size=    8658kB time=00:00:05.66 bitrate=12528.8kbits/s speed=0.022x    frame=  362 fps=1.4 q=42.0 size=    8658kB time=00:00:05.68 bitrate=12484.7kbits/s speed=0.022x    frame=  363 fps=1.4 q=42.0 size=    8658kB time=00:00:05.70 bitrate=12440.9kbits/s speed=0.022x    frame=  365 fps=1.4 q=42.0 size=    8658kB time=00:00:05.74 bitrate=12354.2kbits/s speed=0.0219x    frame=  366 fps=1.4 q=42.0 size=    8658kB time=00:00:05.76 bitrate=12311.3kbits/s speed=0.0219x    frame=  367 fps=1.4 q=42.0 size=    8658kB time=00:00:05.78 bitrate=12268.7kbits/s speed=0.022x    frame=  369 fps=1.4 q=42.0 size=    8658kB time=00:00:05.82 bitrate=12184.4kbits/s speed=0.0219x    frame=  370 fps=1.4 q=42.0 size=    8658kB time=00:00:05.84 bitrate=12142.7kbits/s speed=0.022x    frame=  373 fps=1.4 q=42.0 size=    8658kB time=00:00:05.90 bitrate=12019.2kbits/s speed=0.0219x    frame=  374 fps=1.4 q=42.0 size=    8658kB time=00:00:05.92 bitrate=11978.6kbits/s speed=0.0219x    frame=  376 fps=1.4 q=42.0 size=    8658kB time=00:00:05.96 bitrate=11898.3kbits/s speed=0.022x    frame=  379 fps=1.4 q=42.0 size=    8658kB time=00:00:06.02 bitrate=11779.7kbits/s speed=0.0219x    frame=  380 fps=1.4 q=42.0 size=    8658kB time=00:00:06.04 bitrate=11740.7kbits/s speed=0.0219x    frame=  382 fps=1.4 q=42.0 size=    8658kB time=00:00:06.08 bitrate=11663.5kbits/s speed=0.0219x    frame=  383 fps=1.4 q=42.0 size=    8658kB time=00:00:06.10 bitrate=11625.2kbits/s speed=0.0219x    frame=  384 fps=1.4 q=42.0 size=    8658kB time=00:00:06.12 bitrate=11587.2kbits/s speed=0.0219x    frame=  386 fps=1.4 q=42.0 size=    8658kB time=00:00:06.16 bitrate=11512.0kbits/s speed=0.0219x    frame=  387 fps=1.4 q=42.0 size=    8658kB time=00:00:06.18 bitrate=11474.8kbits/s speed=0.0219x    frame=  388 fps=1.4 q=42.0 size=    8658kB time=00:00:06.20 bitrate=11437.8kbits/s speed=0.0219x    frame=  390 fps=1.4 q=42.0 size=    8658kB time=00:00:06.24 bitrate=11364.4kbits/s speed=0.0219x    frame=  391 fps=1.4 q=42.0 size=    8658kB time=00:00:06.26 bitrate=11328.1kbits/s speed=0.0219x    frame=  392 fps=1.4 q=42.0 size=    8658kB time=00:00:06.28 bitrate=11292.1kbits/s speed=0.0219x    frame=  393 fps=1.4 q=42.0 size=    8658kB time=00:00:06.30 bitrate=11256.2kbits/s speed=0.022x    frame=  394 fps=1.4 q=42.0 size=    8658kB time=00:00:06.32 bitrate=11220.6kbits/s speed=0.0218x    frame=  395 fps=1.4 q=42.0 size=    8658kB time=00:00:06.34 bitrate=11185.2kbits/s speed=0.0218x    frame=  397 fps=1.4 q=42.0 size=    8658kB time=00:00:06.38 bitrate=11115.1kbits/s speed=0.0219x    frame=  398 fps=1.4 q=42.0 size=    8658kB time=00:00:06.40 bitrate=11080.4kbits/s speed=0.0219x    frame=  399 fps=1.4 q=42.0 size=    8658kB time=00:00:06.42 bitrate=11045.9kbits/s speed=0.0219x    frame=  401 fps=1.4 q=42.0 size=    8658kB time=00:00:06.46 bitrate=10977.5kbits/s speed=0.0219x    frame=  402 fps=1.4 q=42.0 size=    8658kB time=00:00:06.48 bitrate=10943.6kbits/s speed=0.0218x    frame=  403 fps=1.4 q=42.0 size=    8658kB time=00:00:06.50 bitrate=10909.9kbits/s speed=0.0218x    frame=  404 fps=1.4 q=42.0 size=    8658kB time=00:00:06.52 bitrate=10876.5kbits/s speed=0.0218x    frame=  406 fps=1.4 q=42.0 size=    8658kB time=00:00:06.56 bitrate=10810.2kbits/s speed=0.0219x    frame=  407 fps=1.4 q=42.0 size=    8658kB time=00:00:06.58 bitrate=10777.3kbits/s speed=0.0219x    frame=  408 fps=1.3 q=42.0 size=    8658kB time=00:00:06.60 bitrate=10744.7kbits/s speed=0.0218x    frame=  410 fps=1.4 q=42.0 size=    8658kB time=00:00:06.64 bitrate=10679.9kbits/s speed=0.0219x    frame=  411 fps=1.3 q=42.0 size=    8658kB time=00:00:06.66 bitrate=10647.9kbits/s speed=0.0218x    frame=  412 fps=1.3 q=42.0 size=    8658kB time=00:00:06.68 bitrate=10616.0kbits/s speed=0.0218x    frame=  413 fps=1.3 q=42.0 size=    8658kB time=00:00:06.70 bitrate=10584.3kbits/s speed=0.0218x    frame=  415 fps=1.3 q=42.0 size=    8658kB time=00:00:06.74 bitrate=10521.5kbits/s speed=0.0217x    frame=  416 fps=1.3 q=42.0 size=    8658kB time=00:00:06.76 bitrate=10490.4kbits/s speed=0.0217x    frame=  418 fps=1.3 q=42.0 size=    8658kB time=00:00:06.80 bitrate=10428.7kbits/s speed=0.0218x    frame=  420 fps=1.3 q=42.0 size=    8658kB time=00:00:06.84 bitrate=10367.7kbits/s speed=0.0219x    frame=  421 fps=1.3 q=42.0 size=    8658kB time=00:00:06.86 bitrate=10337.5kbits/s speed=0.0218x    frame=  422 fps=1.3 q=42.0 size=    8658kB time=00:00:06.88 bitrate=10307.4kbits/s speed=0.0218x    frame=  424 fps=1.3 q=42.0 size=    8658kB time=00:00:06.92 bitrate=10247.9kbits/s speed=0.0218x    frame=  425 fps=1.3 q=42.0 size=    8658kB time=00:00:06.94 bitrate=10218.3kbits/s speed=0.0218x    frame=  426 fps=1.3 q=42.0 size=    8658kB time=00:00:06.96 bitrate=10189.0kbits/s speed=0.0218x    frame=  428 fps=1.3 q=42.0 size=    8658kB time=00:00:07.00 bitrate=10130.8kbits/s speed=0.0217x    frame=  429 fps=1.3 q=42.0 size=    8658kB time=00:00:07.02 bitrate=10101.9kbits/s speed=0.0217x    frame=  430 fps=1.3 q=42.0 size=    8658kB time=00:00:07.04 bitrate=10073.2kbits/s speed=0.0217x    frame=  433 fps=1.3 q=42.0 size=    8658kB time=00:00:07.10 bitrate=9988.1kbits/s speed=0.0218x    frame=  434 fps=1.3 q=42.0 size=    8658kB time=00:00:07.12 bitrate=9960.0kbits/s speed=0.0217x    frame=  436 fps=1.3 q=42.0 size=    8658kB time=00:00:07.16 bitrate=9904.4kbits/s speed=0.0218x    frame=  437 fps=1.3 q=42.0 size=    8658kB time=00:00:07.18 bitrate=9876.8kbits/s speed=0.0217x    frame=  438 fps=1.3 q=42.0 size=    8658kB time=00:00:07.20 bitrate=9849.4kbits/s speed=0.0217x    frame=  439 fps=1.3 q=42.0 size=    8658kB time=00:00:07.22 bitrate=9822.1kbits/s speed=0.0217x    frame=  441 fps=1.3 q=42.0 size=    8658kB time=00:00:07.26 bitrate=9768.0kbits/s speed=0.0217x    frame=  442 fps=1.3 q=42.0 size=    8658kB time=00:00:07.28 bitrate=9741.2kbits/s speed=0.0217x    frame=  443 fps=1.3 q=42.0 size=    8658kB time=00:00:07.30 bitrate=9714.5kbits/s speed=0.0217x    frame=  445 fps=1.3 q=42.0 size=    8658kB time=00:00:07.34 bitrate=9661.6kbits/s speed=0.0217x    frame=  446 fps=1.3 q=42.0 size=    8658kB time=00:00:07.36 bitrate=9635.3kbits/s speed=0.0217x    frame=  447 fps=1.3 q=42.0 size=    8658kB time=00:00:07.38 bitrate=9609.2kbits/s speed=0.0217x    frame=  449 fps=1.3 q=42.0 size=    8658kB time=00:00:07.42 bitrate=9557.4kbits/s speed=0.0217x    frame=  450 fps=1.3 q=42.0 size=    8658kB time=00:00:07.44 bitrate=9531.7kbits/s speed=0.0217x    frame=  451 fps=1.3 q=42.0 size=    8658kB time=00:00:07.46 bitrate=9506.2kbits/s speed=0.0217x    frame=  453 fps=1.3 q=42.0 size=    8658kB time=00:00:07.50 bitrate=9455.5kbits/s speed=0.0216x    frame=  454 fps=1.3 q=42.0 size=    8658kB time=00:00:07.52 bitrate=9430.3kbits/s speed=0.0216x    frame=  456 fps=1.3 q=42.0 size=    8658kB time=00:00:07.56 bitrate=9380.4kbits/s speed=0.0217x    frame=  457 fps=1.3 q=42.0 size=    8658kB time=00:00:07.58 bitrate=9355.7kbits/s speed=0.0217x    frame=  458 fps=1.3 q=42.0 size=    8658kB time=00:00:07.60 bitrate=9331.1kbits/s speed=0.0217x    frame=  459 fps=1.3 q=42.0 size=    8658kB time=00:00:07.62 bitrate=9306.6kbits/s speed=0.0217x    frame=  460 fps=1.3 q=42.0 size=    8658kB time=00:00:07.64 bitrate=9282.2kbits/s speed=0.0217x    frame=  461 fps=1.3 q=42.0 size=    8658kB time=00:00:07.66 bitrate=9258.0kbits/s speed=0.0216x    frame=  462 fps=1.3 q=42.0 size=    8658kB time=00:00:07.68 bitrate=9233.9kbits/s speed=0.0216x    frame=  463 fps=1.3 q=42.0 size=    8658kB time=00:00:07.70 bitrate=9209.9kbits/s speed=0.0217x    frame=  466 fps=1.3 q=42.0 size=    8658kB time=00:00:07.76 bitrate=9138.7kbits/s speed=0.0217x    frame=  467 fps=1.3 q=42.0 size=    8658kB time=00:00:07.78 bitrate=9115.2kbits/s speed=0.0218x    frame=  468 fps=1.3 q=42.0 size=    8658kB time=00:00:07.80 bitrate=9091.8kbits/s speed=0.0216x    frame=  469 fps=1.3 q=42.0 size=    8658kB time=00:00:07.82 bitrate=9068.6kbits/s speed=0.0216x    frame=  470 fps=1.3 q=42.0 size=    8658kB time=00:00:07.84 bitrate=9045.5kbits/s speed=0.0216x    frame=  473 fps=1.3 q=42.0 size=    8658kB time=00:00:07.90 bitrate=8976.8kbits/s speed=0.0217x    frame=  474 fps=1.3 q=42.0 size=    8658kB time=00:00:07.92 bitrate=8954.1kbits/s speed=0.0216x    frame=  476 fps=1.3 q=42.0 size=    8658kB time=00:00:07.96 bitrate=8909.1kbits/s speed=0.0217x    frame=  478 fps=1.3 q=42.0 size=   13792kB time=00:00:08.00 bitrate=14121.0kbits/s speed=0.0217x    frame=  479 fps=1.3 q=42.0 size=   13792kB time=00:00:08.02 bitrate=14085.8kbits/s speed=0.0217x    frame=  480 fps=1.3 q=42.0 size=   13792kB time=00:00:08.04 bitrate=14050.8kbits/s speed=0.0216x    frame=  482 fps=1.3 q=42.0 size=   13792kB time=00:00:08.08 bitrate=13981.2kbits/s speed=0.0216x    frame=  483 fps=1.3 q=42.0 size=   13792kB time=00:00:08.10 bitrate=13946.7kbits/s speed=0.0216x    frame=  484 fps=1.3 q=42.0 size=   13792kB time=00:00:08.12 bitrate=13912.4kbits/s speed=0.0216x    frame=  486 fps=1.3 q=42.0 size=   13792kB time=00:00:08.16 bitrate=13844.2kbits/s speed=0.0216x    frame=  487 fps=1.3 q=42.0 size=   13792kB time=00:00:08.18 bitrate=13810.3kbits/s speed=0.0216x    frame=  488 fps=1.3 q=42.0 size=   13792kB time=00:00:08.20 bitrate=13776.6kbits/s speed=0.0217x    frame=  490 fps=1.3 q=42.0 size=   13792kB time=00:00:08.24 bitrate=13709.8kbits/s speed=0.0216x    frame=  491 fps=1.3 q=42.0 size=   13792kB time=00:00:08.26 bitrate=13676.6kbits/s speed=0.0216x    frame=  492 fps=1.3 q=42.0 size=   13792kB time=00:00:08.28 bitrate=13643.5kbits/s speed=0.0216x    frame=  494 fps=1.3 q=42.0 size=   13792kB time=00:00:08.32 bitrate=13578.0kbits/s speed=0.0216x    frame=  495 fps=1.3 q=42.0 size=   13792kB time=00:00:08.34 bitrate=13545.4kbits/s speed=0.0216x    frame=  496 fps=1.3 q=42.0 size=   13792kB time=00:00:08.36 bitrate=13513.0kbits/s speed=0.0216x    frame=  498 fps=1.3 q=42.0 size=   13792kB time=00:00:08.40 bitrate=13448.7kbits/s speed=0.0216x    frame=  499 fps=1.3 q=42.0 size=   13792kB time=00:00:08.42 bitrate=13416.7kbits/s speed=0.0216x    frame=  500 fps=1.3 q=42.0 size=   13792kB time=00:00:08.44 bitrate=13384.9kbits/s speed=0.0216x    frame=  500 fps=1.1 q=-1.0 Lsize=   16941kB time=00:00:09.94 bitrate=13960.1kbits/s speed=0.0216x    
video:16936kB audio:0kB subtitle:0kB other streams:0kB global headers:0kB muxing overhead: 0.027493%
bench: utime=1779.040s
bench: maxrss=3305660kB
[libx264 @ 0x2c181c0] frame I:2     Avg QP:33.10  size:545110
[libx264 @ 0x2c181c0] frame P:114   Avg QP:42.86  size: 71175
[libx264 @ 0x2c181c0] frame B:384   Avg QP:45.15  size: 21191
[libx264 @ 0x2c181c0] consecutive B-frames:  0.4%  0.0%  1.2% 60.0% 30.0%  8.4%  0.0%  0.0%  0.0%
[libx264 @ 0x2c181c0] mb I  I16..4: 12.5% 79.2%  8.3%
[libx264 @ 0x2c181c0] mb P  I16..4:  1.3%  4.9%  0.1%  P16..4: 40.6%  5.6%  6.7%  0.0%  0.0%    skip:40.8%
[libx264 @ 0x2c181c0] mb B  I16..4:  0.0%  0.1%  0.0%  B16..8: 44.4%  2.5%  0.3%  direct: 0.4%  skip:52.3%  L0:45.1% L1:54.1% BI: 0.8%
[libx264 @ 0x2c181c0] final ratefactor: 33.71
[libx264 @ 0x2c181c0] 8x8 transform intra:79.3% inter:85.0%
[libx264 @ 0x2c181c0] direct mvs  spatial:99.2% temporal:0.8%
[libx264 @ 0x2c181c0] coded y,uvDC,uvAC intra: 42.7% 51.3% 19.0% inter: 2.9% 3.9% 0.1%
[libx264 @ 0x2c181c0] i16 v,h,dc,p: 34% 21%  7% 37%
[libx264 @ 0x2c181c0] i8 v,h,dc,ddl,ddr,vr,hd,vl,hu:  7%  4%  4% 12% 16% 16% 16% 14% 12%
[libx264 @ 0x2c181c0] i4 v,h,dc,ddl,ddr,vr,hd,vl,hu:  7%  4%  1% 12% 15% 15% 16% 13% 16%
[libx264 @ 0x2c181c0] i8c dc,h,v,p: 43% 19% 18% 20%
[libx264 @ 0x2c181c0] Weighted P-Frames: Y:1.8% UV:0.9%
[libx264 @ 0x2c181c0] ref P L0: 54.0%  7.6% 12.7%  4.0%  3.6%  3.1%  3.3%  1.7%  1.5%  1.2%  1.1%  1.1%  1.3%  1.3%  1.5%  1.0%
[libx264 @ 0x2c181c0] ref B L0: 93.3%  3.3%  1.3%  0.5%  0.3%  0.3%  0.3%  0.1%  0.1%  0.1%  0.1%  0.1%  0.1%  0.1%  0.1%
[libx264 @ 0x2c181c0] ref B L1: 98.9%  1.1%
[libx264 @ 0x2c181c0] kb/s:13873.38
